<?xml version="1.0" encoding="utf-8"?>
<!-- Generator: Adobe Illustrator 16.0.0, SVG Export Plug-In . SVG Version: 6.00 Build 0)  -->
<!DOCTYPE svg PUBLIC "-//W3C//DTD SVG 1.1//EN" "http://www.w3.org/Graphics/SVG/1.1/DTD/svg11.dtd">
<svg version="1.1" id="Layer_1" xmlns="http://www.w3.org/2000/svg" xmlns:xlink="http://www.w3.org/1999/xlink" x="0px" y="0px"
	 width="32px" height="32px" viewBox="0 0 32 32" enable-background="new 0 0 32 32" xml:space="preserve">
<g id="Shape_11">
	<g>
		<path fill-rule="evenodd" clip-rule="evenodd" fill="#FFFFFF" d="M27.003,16.474c0.913-0.104,2.159-2.44-1.242-2.999
			c-1.985-0.43-6.829,0.357-6.829,0.357c1.327-3.623,1.365-5.95,1.058-6.471c-0.164-1.248-3.074-3.98-3.334,1.122
			c-0.339,1.554-0.731,3.296-1.556,4.477c-1.655,2.229-3.449,3.177-3.449,3.177s0.034,5.604,0,8.807
			c1.278,0.093,2.009,0.544,2.61,0.716c4.219,2.011,10.619-0.237,10.619-0.237c2.141-0.338,1.384-2.238,1.182-2.67
			c0.026-0.023,0.048-0.047,0.061-0.069c0.021-0.038,0.018-0.062-0.001-0.072c1.599-0.759,1.389-2.441,0.599-3.061
			c0.011-0.024,0.011-0.042-0.002-0.054C28.095,18.791,27.797,16.755,27.003,16.474z M4,26.299h6.574V15.35H4V26.299z M9.188,24.471
			c0.395,0,0.712,0.319,0.712,0.712c0,0.397-0.317,0.715-0.712,0.715c-0.394,0-0.711-0.317-0.711-0.715
			C8.477,24.79,8.794,24.471,9.188,24.471z"/>
	</g>
</g>
</svg>
