<?xml version="1.0" encoding="utf-8"?>
<!-- Generator: Adobe Illustrator 16.0.0, SVG Export Plug-In . SVG Version: 6.00 Build 0)  -->
<!DOCTYPE svg PUBLIC "-//W3C//DTD SVG 1.1//EN" "http://www.w3.org/Graphics/SVG/1.1/DTD/svg11.dtd">
<svg version="1.1" id="Layer_1" xmlns="http://www.w3.org/2000/svg" xmlns:xlink="http://www.w3.org/1999/xlink" x="0px" y="0px"
	 width="32px" height="32px" viewBox="0 0 32 32" enable-background="new 0 0 32 32" xml:space="preserve">
<path fill-rule="evenodd" clip-rule="evenodd" fill="#FFFFFF" d="M23.801,13.66c-0.131-0.026-0.266-0.044-0.4-0.061
	c-0.023-0.003-0.049-0.008-0.074-0.011c-0.166-0.016-0.332-0.026-0.5-0.026c-0.004,0-0.008,0-0.012,0
	c-0.01,0-0.016-0.002-0.021-0.002c-0.174,0-0.348,0.01-0.516,0.027c-0.605-1.968-2.441-3.365-4.576-3.365
	c-0.232,0-0.551,0.018-0.844,0.052c-1.05-1.399-2.719-2.31-4.607-2.31c-3.173,0-5.745,2.562-5.745,5.72
	c0,0.126,0.011,0.25,0.02,0.375c-1.544,0.95-2.577,2.645-2.577,4.585c0,2.974,2.418,5.385,5.403,5.391l0,0h5.394v-3.973H13.04
	c-0.167,0-0.321-0.092-0.396-0.239c-0.074-0.147-0.061-0.325,0.036-0.46l2.959-4.055c0.084-0.113,0.217-0.181,0.359-0.181
	c0.141,0,0.274,0.068,0.357,0.181l2.922,4.006c0.079,0.079,0.127,0.188,0.127,0.309c0,0.242-0.198,0.439-0.444,0.439
	c-0.001,0-0.004,0-0.005,0h-1.706v3.973h5.146l-0.002-0.02c0.133,0.01,0.266,0.02,0.4,0.02c2.904,0,5.26-2.345,5.26-5.236
	C28.053,16.249,26.223,14.128,23.801,13.66z"/>
</svg>
