<?xml version="1.0" encoding="utf-8"?>
<!-- Generator: Adobe Illustrator 16.0.0, SVG Export Plug-In . SVG Version: 6.00 Build 0)  -->
<!DOCTYPE svg PUBLIC "-//W3C//DTD SVG 1.1//EN" "http://www.w3.org/Graphics/SVG/1.1/DTD/svg11.dtd">
<svg version="1.1" id="Layer_1" xmlns="http://www.w3.org/2000/svg" xmlns:xlink="http://www.w3.org/1999/xlink" x="0px" y="0px"
	 width="32px" height="32px" viewBox="0 0 32 32" enable-background="new 0 0 32 32" xml:space="preserve">
<g>
	<g>
		<circle fill="#FFFFFF" cx="12.125" cy="5.672" r="2.023"/>
		<polygon fill="#FFFFFF" points="9.443,10.804 9.443,28.352 11.165,28.352 11.165,18.684 13.218,18.684 13.218,28.352 
			15.27,28.352 15.27,10.473 15.999,10.473 15.999,8.553 9.434,8.553 		"/>
		<g>
			<path fill="#FFFFFF" d="M8.34,18.188c-0.057-0.1-1.763-2.401-1.593-5.125c0.129-2.07,1.012-3.593,2.624-4.526L9.777,8.5
				l0.188,1.063c-1.322,0.766-1.954,1.885-2.063,3.625c-0.151,2.417,1.785,4.249,1.5,4.407L8.34,18.188z"/>
		</g>
	</g>
	<g>
		<circle fill="#FFFFFF" cx="19.875" cy="5.672" r="2.023"/>
		<polygon fill="#FFFFFF" points="22.557,10.804 22.557,28.352 20.835,28.352 20.835,18.684 18.782,18.684 18.782,28.352 
			16.73,28.352 16.73,10.473 16.001,10.473 16.001,8.553 22.566,8.553 		"/>
		<g>
			<path fill="#FFFFFF" d="M23.66,18.188c0.057-0.1,1.763-2.401,1.593-5.125c-0.13-2.07-1.012-3.593-2.624-4.526L22.223,8.5
				l-0.188,1.063c1.322,0.766,1.954,1.885,2.063,3.625c0.15,2.417-1.785,4.249-1.5,4.407L23.66,18.188z"/>
		</g>
	</g>
</g>
</svg>
