<?xml version="1.0" encoding="utf-8"?>
<!-- Generator: Adobe Illustrator 16.0.0, SVG Export Plug-In . SVG Version: 6.00 Build 0)  -->
<!DOCTYPE svg PUBLIC "-//W3C//DTD SVG 1.1//EN" "http://www.w3.org/Graphics/SVG/1.1/DTD/svg11.dtd">
<svg version="1.1" id="Layer_1" xmlns="http://www.w3.org/2000/svg" xmlns:xlink="http://www.w3.org/1999/xlink" x="0px" y="0px"
	 width="32px" height="32px" viewBox="0 0 32 32" enable-background="new 0 0 32 32" xml:space="preserve">
<g id="filter">
	<g>
		<path fill-rule="evenodd" clip-rule="evenodd" fill="#FFFFFF" d="M28.003,7.591C28.003,5.985,22.627,4,16,4
			S3.997,5.985,3.997,7.591c0,0.03,0.017,0.058,0.022,0.089H3.997c0,2.823,7.578,9.436,8.991,12.26v5.842
			c0,0.017,0.01,0.028,0.012,0.044V26.5c0,0.828,0.672,1.5,1.5,1.5h3c0.828,0,1.5-0.672,1.5-1.5v-0.677
			c0.001-0.015,0.011-0.025,0.011-0.042v-5.842c1.414-2.824,8.992-9.437,8.992-12.26H27.98C27.986,7.648,28.003,7.621,28.003,7.591z
			 M16.127,11.513c-5.814,0-10.641-1.666-10.641-3.379c0-1.712,4.826-2.646,10.641-2.646c5.816,0,10.36,0.934,10.36,2.646
			C26.487,9.847,21.943,11.513,16.127,11.513z"/>
	</g>
</g>
</svg>
