<?xml version="1.0" encoding="utf-8"?>
<!-- Generator: Adobe Illustrator 16.0.0, SVG Export Plug-In . SVG Version: 6.00 Build 0)  -->
<!DOCTYPE svg PUBLIC "-//W3C//DTD SVG 1.1//EN" "http://www.w3.org/Graphics/SVG/1.1/DTD/svg11.dtd">
<svg version="1.1" id="Layer_1" xmlns="http://www.w3.org/2000/svg" xmlns:xlink="http://www.w3.org/1999/xlink" x="0px" y="0px"
	 width="32px" height="32px" viewBox="0 0 32 32" enable-background="new 0 0 32 32" xml:space="preserve">
<g id="Chat">
	<g>
		<path fill-rule="evenodd" clip-rule="evenodd" fill="#FFFFFF" d="M18.156,4.5h-4.313C8.684,4.5,4.5,8.684,4.5,13.844
			c0,3.344,1.771,6.255,4.411,7.906H8.813v5.75l6.469-4.313h2.875c5.16,0,9.344-4.184,9.344-9.344S23.316,4.5,18.156,4.5z
			 M18.156,20.313h-2.875l-3.594,2.156v-2.553c-2.507-0.891-4.313-3.26-4.313-6.072c0-3.572,2.896-6.469,6.469-6.469h4.313
			c3.572,0,6.469,2.896,6.469,6.469S21.729,20.313,18.156,20.313z"/>
	</g>
</g>
</svg>
